<svg xmlns="http://www.w3.org/2000/svg" viewBox="24 16.4 76.6 87.4">

<path d=" M57.223663,103.858704   C54.779625,103.858589 52.800911,103.858589 49.677853,103.858589   C55.435398,98.002769 59.263542,92.067833 58.909008,85.642052   C56.223301,84.576500 53.544296,84.342590 52.436790,82.901207   C50.148479,79.923027 53.552525,74.938263 60.569294,70.561874   C59.967178,66.714508 57.455055,65.637489 53.886341,66.054054   C44.800983,67.114532 39.187824,79.804893 44.172733,88.017136   C44.722195,88.922325 45.410664,89.743134 46.116425,90.715752   C38.098976,92.062515 31.871321,89.194595 27.696083,82.449089   C23.512337,75.689835 23.569805,66.786385 28.296040,60.829319   C32.416885,55.635300 36.966824,50.781719 41.803127,45.231499   C43.547684,54.882591 50.784061,58.584335 58.181938,62.143852   C61.179199,63.585999 64.214630,64.982018 67.077446,66.663368   C72.778343,70.011536 74.091202,74.859184 69.413651,79.289238   C64.709900,83.744095 65.643005,88.153397 67.604088,92.748596   C69.190834,96.466667 71.740219,99.773918 74.224762,103.858826   C68.755226,103.858826 63.222107,103.858826 57.223663,103.858704  z"/>
    <path d=" M74.626587,36.028160   C73.761902,39.562000 72.702446,42.794418 71.388290,46.803940   C74.970184,49.932686 79.061455,48.431152 83.271843,45.424343   C87.951462,50.852932 92.819351,55.891907 96.968010,61.466171   C102.176201,68.464073 101.047745,78.742722 94.964951,85.457130   C89.298683,91.711800 80.729149,93.095970 73.768173,89.189026   C75.491470,87.194878 77.402588,85.172684 79.100227,82.984856   C85.154625,75.182289 83.990204,66.954247 75.708107,61.520744   C71.132324,58.518776 66.020233,56.347363 61.278347,53.581341   C57.516396,51.386925 52.647812,49.973763 52.903820,44.178654   C53.105644,39.610123 55.179600,36.027714 59.503857,34.438232   C64.563202,32.578560 69.815689,31.216946 74.626587,36.028160  z"/>
    <path d=" M58.175972,26.817169   C57.346493,26.350742 56.319389,25.509090 56.409550,25.364603   C58.157299,22.563679 60.035637,19.844242 62.401466,16.347990   C64.565369,19.538694 66.404152,22.250010 68.539986,25.399326   C64.655693,25.928194 61.577103,26.347359 58.175972,26.817169  z"/>
</svg>